<svg xmlns="http://www.w3.org/2000/svg" viewBox="0 0 512 512" width="512" height="512">
  <defs>
    <linearGradient id="bg" x1="0" y1="0" x2="0" y2="1">
      <stop offset="0" stop-color="#fff7df"/>
      <stop offset="1" stop-color="#ffe6b4"/>
    </linearGradient>
    <linearGradient id="box" x1="0" y1="0" x2="0" y2="1">
      <stop offset="0" stop-color="#ffd56d"/>
      <stop offset="1" stop-color="#f2a735"/>
    </linearGradient>
  </defs>
  <rect width="512" height="512" rx="118" fill="url(#bg)"/>
  <circle cx="122" cy="146" r="54" fill="#fffaf0" opacity=".9"/>
  <circle cx="400" cy="128" r="42" fill="#fffaf0" opacity=".82"/>
  <path d="M258 82c48-74 128-38 116 57" fill="none" stroke="#efbd68" stroke-width="38" stroke-linecap="round"/>
  <path d="M142 162c-58 0-84 51-60 99 21 40 75 45 108 10" fill="#ffe9c5"/>
  <path d="M370 162c58 0 84 51 60 99-21 40-75 45-108 10" fill="#ffe9c5"/>
  <rect x="112" y="128" width="288" height="300" rx="82" fill="url(#box)"/>
  <rect x="146" y="176" width="220" height="154" rx="58" fill="#fff1c9" opacity=".93"/>
  <circle cx="211" cy="252" r="19" fill="#5c3815"/>
  <circle cx="301" cy="252" r="19" fill="#5c3815"/>
  <path d="M216 296c25 24 58 24 82 0" fill="none" stroke="#5c3815" stroke-width="17" stroke-linecap="round"/>
  <circle cx="184" cy="294" r="19" fill="#ffa98f" opacity=".55"/>
  <circle cx="329" cy="294" r="19" fill="#ffa98f" opacity=".55"/>
  <rect x="192" y="354" width="128" height="36" rx="18" fill="#ffe9bd"/>
  <circle cx="224" cy="372" r="8" fill="#d58d2f"/>
  <circle cx="256" cy="372" r="8" fill="#d58d2f"/>
  <circle cx="288" cy="372" r="8" fill="#d58d2f"/>
  <path d="M407 299l15 31 34 5-25 24 6 34-30-16-30 16 6-34-25-24 34-5z" fill="#fff3a4"/>
  <path d="M82 332l11 23 25 4-18 17 4 25-22-12-22 12 4-25-18-17 25-4z" fill="#fff3a4"/>
</svg>
