<svg xmlns="http://www.w3.org/2000/svg" viewBox="0 0 192 192" width="192" height="192">
  <defs>
    <linearGradient id="bg" x1="0" y1="0" x2="0" y2="1">
      <stop offset="0" stop-color="#fff7df"/>
      <stop offset="1" stop-color="#ffe6b4"/>
    </linearGradient>
    <linearGradient id="box" x1="0" y1="0" x2="0" y2="1">
      <stop offset="0" stop-color="#ffd56d"/>
      <stop offset="1" stop-color="#f2a735"/>
    </linearGradient>
  </defs>
  <rect width="192" height="192" rx="44" fill="url(#bg)"/>
  <circle cx="46" cy="55" r="20" fill="#fffaf0" opacity=".9"/>
  <circle cx="150" cy="48" r="16" fill="#fffaf0" opacity=".8"/>
  <path d="M97 31c18-28 48-14 43 21" fill="none" stroke="#efbd68" stroke-width="14" stroke-linecap="round"/>
  <path d="M53 61c-21 0-31 19-22 37 8 15 28 17 40 4" fill="#ffe9c5"/>
  <path d="M139 61c21 0 31 19 22 37-8 15-28 17-40 4" fill="#ffe9c5"/>
  <rect x="42" y="48" width="108" height="112" rx="31" fill="url(#box)"/>
  <rect x="55" y="66" width="82" height="58" rx="22" fill="#fff1c9" opacity=".92"/>
  <circle cx="79" cy="95" r="7" fill="#5c3815"/>
  <circle cx="113" cy="95" r="7" fill="#5c3815"/>
  <path d="M81 111c9 9 22 9 31 0" fill="none" stroke="#5c3815" stroke-width="6" stroke-linecap="round"/>
  <circle cx="69" cy="111" r="7" fill="#ffa98f" opacity=".55"/>
  <circle cx="124" cy="111" r="7" fill="#ffa98f" opacity=".55"/>
  <rect x="72" y="133" width="48" height="13" rx="7" fill="#ffe9bd"/>
  <circle cx="84" cy="139.5" r="3" fill="#d58d2f"/>
  <circle cx="96" cy="139.5" r="3" fill="#d58d2f"/>
  <circle cx="108" cy="139.5" r="3" fill="#d58d2f"/>
  <path d="M153 112l5 11 12 2-9 8 2 12-10-6-11 6 3-12-9-8 12-2z" fill="#fff3a4"/>
  <path d="M31 125l4 8 9 1-7 6 2 9-8-4-8 4 2-9-7-6 9-1z" fill="#fff3a4"/>
</svg>
