<svg xmlns="http://www.w3.org/2000/svg" viewBox="0 0 192 192" width="192" height="192">
  <rect width="192" height="192" rx="42" fill="#fff8ef"/>
  <circle cx="96" cy="96" r="68" fill="#f7e8c9"/>
  <rect x="47" y="62" width="98" height="82" rx="28" fill="#9ecfe4"/>
  <circle cx="75" cy="101" r="8" fill="#5c4636"/>
  <circle cx="117" cy="101" r="8" fill="#5c4636"/>
  <path d="M78 122c12 10 25 10 36 0" fill="none" stroke="#5c4636" stroke-width="7" stroke-linecap="round"/>
  <path d="M54 58c12-22 28-21 36 0M102 58c12-22 28-21 36 0" fill="none" stroke="#e9b96f" stroke-width="12" stroke-linecap="round"/>
  <path d="M145 49l5 11 12 2-9 8 2 12-10-6-11 6 3-12-9-8 12-2z" fill="#ffd779"/>
</svg>
