<svg xmlns="http://www.w3.org/2000/svg" viewBox="0 0 512 512" width="512" height="512">
  <rect width="512" height="512" rx="112" fill="#fff8ef"/>
  <circle cx="256" cy="256" r="184" fill="#f7e8c9"/>
  <rect x="126" y="166" width="260" height="218" rx="74" fill="#9ecfe4"/>
  <circle cx="201" cy="268" r="22" fill="#5c4636"/>
  <circle cx="311" cy="268" r="22" fill="#5c4636"/>
  <path d="M208 324c32 26 66 26 96 0" fill="none" stroke="#5c4636" stroke-width="18" stroke-linecap="round"/>
  <path d="M144 154c32-58 74-56 96 0M272 154c32-58 74-56 96 0" fill="none" stroke="#e9b96f" stroke-width="32" stroke-linecap="round"/>
  <path d="M385 130l15 31 34 5-25 24 6 34-30-16-30 16 6-34-25-24 34-5z" fill="#ffd779"/>
</svg>
